<?xml version="1.0" encoding="utf-8"?>
<!-- Generator: Adobe Illustrator 27.5.0, SVG Export Plug-In . SVG Version: 6.00 Build 0)  -->
<svg version="1.1" id="Background" xmlns="http://www.w3.org/2000/svg" xmlns:xlink="http://www.w3.org/1999/xlink" x="0px" y="0px"
	 viewBox="0 0 1000 1000" style="enable-background:new 0 0 1000 1000;" xml:space="preserve">
<rect style="fill:#FFFFFF;" width="1000" height="1000"/>
<g>
	<polygon style="fill:#FFFFFF;" points="1000,386.592 0,569.234 0,612.954 1000,430.312 	"/>
	<polygon style="fill:#FFFFFF;" points="1000,751.399 0,934.041 0,977.762 1000,795.119 	"/>
	<polygon style="fill:#FFFFFF;" points="1000,647.168 0,829.81 0,873.532 1000,690.89 	"/>
	<polygon style="fill:#FFFFFF;" points="1000,1000 1000,959.86 780.226,1000 	"/>
	<polygon style="fill:#FFFFFF;" points="1000,803.514 0,986.156 0,1000 163.587,1000 1000,847.236 	"/>
	<polygon style="fill:#FFFFFF;" points="1000,334.477 0,517.119 0,560.839 1000,378.197 	"/>
	<polygon style="fill:#FFFFFF;" points="1000,438.707 0,621.349 0,665.07 1000,482.427 	"/>
	<polygon style="fill:#FFFFFF;" points="1000,490.822 0,673.464 0,717.186 1000,534.543 	"/>
	<polygon style="fill:#FFFFFF;" points="448.926,1000 1000,899.351 1000,855.63 209.548,1000 	"/>
	<polygon style="fill:#FFFFFF;" points="1000,542.938 0,725.58 0,769.301 1000,586.658 	"/>
	<polygon style="fill:#FFFFFF;" points="1000,595.053 0,777.695 0,821.416 1000,638.773 	"/>
	<polygon style="fill:#FFFFFF;" points="1000,282.36 0,465.003 0,508.724 1000,326.082 	"/>
	<polygon style="fill:#FFFFFF;" points="1000,699.284 0,881.926 0,925.647 1000,743.005 	"/>
	<polygon style="fill:#FFFFFF;" points="734.266,1000 1000,951.466 1000,907.745 494.887,1000 	"/>
	<polygon style="fill:#FFFFFF;" points="1000,230.245 0,412.888 0,456.608 1000,273.966 	"/>
	<polygon style="fill:#FFFFFF;" points="1000,21.784 0,204.426 0,248.147 1000,65.505 	"/>
	<polygon style="fill:#FFFFFF;" points="1000,73.899 0,256.542 0,300.262 1000,117.62 	"/>
	<polygon style="fill:#FFFFFF;" points="1000,0 833.928,0 0,152.31 0,196.032 1000,13.39 	"/>
	<polygon style="fill:#FFFFFF;" points="0,0 0,39.686 217.288,0 	"/>
	<polygon style="fill:#FFFFFF;" points="548.588,0 0,100.195 0,143.916 787.966,0 	"/>
	<polygon style="fill:#FFFFFF;" points="1000,126.014 0,308.657 0,352.378 1000,169.736 	"/>
	<polygon style="fill:#FFFFFF;" points="263.249,0 0,48.08 0,91.801 502.627,0 	"/>
	<polygon style="fill:#FFFFFF;" points="1000,178.13 0,360.773 0,404.493 1000,221.851 	"/>
	<polygon style="fill:#FFFFFF;" points="1000,169.736 0,352.378 0,360.773 1000,178.13 	"/>
	
		<linearGradient id="SVGID_1_" gradientUnits="userSpaceOnUse" x1="1474.6167" y1="1620.8524" x2="879.8611" y2="966.3806" gradientTransform="matrix(0.1797 0.9837 -1.2935 0.2362 1938.9298 -1175.5355)">
		<stop  offset="0" style="stop-color:#999999"/>
		<stop  offset="0.1007" style="stop-color:#B3B3B3"/>
		<stop  offset="0.2336" style="stop-color:#CFCFCF"/>
		<stop  offset="0.378" style="stop-color:#E4E4E4"/>
		<stop  offset="0.5373" style="stop-color:#F3F3F3"/>
		<stop  offset="0.7233" style="stop-color:#FCFCFC"/>
		<stop  offset="1" style="stop-color:#FFFFFF"/>
	</linearGradient>
	<polygon style="fill:url(#SVGID_1_);" points="1000,169.736 0,352.378 0,360.773 1000,178.13 	"/>
	<polygon style="fill:#FFFFFF;" points="1000,273.966 0,456.608 0,465.003 1000,282.36 	"/>
	
		<linearGradient id="SVGID_00000080915067099501919100000015431539479135856058_" gradientUnits="userSpaceOnUse" x1="1570.0642" y1="1627.2964" x2="975.3085" y2="972.8245" gradientTransform="matrix(0.1797 0.9837 -1.2935 0.2362 1938.9298 -1175.5355)">
		<stop  offset="0" style="stop-color:#999999"/>
		<stop  offset="0.1007" style="stop-color:#B3B3B3"/>
		<stop  offset="0.2336" style="stop-color:#CFCFCF"/>
		<stop  offset="0.378" style="stop-color:#E4E4E4"/>
		<stop  offset="0.5373" style="stop-color:#F3F3F3"/>
		<stop  offset="0.7233" style="stop-color:#FCFCFC"/>
		<stop  offset="1" style="stop-color:#FFFFFF"/>
	</linearGradient>
	<polygon style="fill:url(#SVGID_00000080915067099501919100000015431539479135856058_);" points="1000,273.966 0,456.608 
		0,465.003 1000,282.36 	"/>
	<polygon style="fill:#FFFFFF;" points="1000,378.197 0,560.839 0,569.234 1000,386.592 	"/>
	
		<linearGradient id="SVGID_00000107579952522545576920000001570033448907208079_" gradientUnits="userSpaceOnUse" x1="1665.5132" y1="1633.7408" x2="1070.7576" y2="979.269" gradientTransform="matrix(0.1797 0.9837 -1.2935 0.2362 1938.9298 -1175.5355)">
		<stop  offset="0" style="stop-color:#999999"/>
		<stop  offset="0.1007" style="stop-color:#B3B3B3"/>
		<stop  offset="0.2336" style="stop-color:#CFCFCF"/>
		<stop  offset="0.378" style="stop-color:#E4E4E4"/>
		<stop  offset="0.5373" style="stop-color:#F3F3F3"/>
		<stop  offset="0.7233" style="stop-color:#FCFCFC"/>
		<stop  offset="1" style="stop-color:#FFFFFF"/>
	</linearGradient>
	<polygon style="fill:url(#SVGID_00000107579952522545576920000001570033448907208079_);" points="1000,378.197 0,560.839 
		0,569.234 1000,386.592 	"/>
	<polygon style="fill:#FFFFFF;" points="1000,482.427 0,665.07 0,673.464 1000,490.822 	"/>
	
		<linearGradient id="SVGID_00000057854330643949527930000007454384958500921000_" gradientUnits="userSpaceOnUse" x1="1760.9607" y1="1640.1848" x2="1166.2051" y2="985.7129" gradientTransform="matrix(0.1797 0.9837 -1.2935 0.2362 1938.9298 -1175.5355)">
		<stop  offset="0" style="stop-color:#999999"/>
		<stop  offset="0.1007" style="stop-color:#B3B3B3"/>
		<stop  offset="0.2336" style="stop-color:#CFCFCF"/>
		<stop  offset="0.378" style="stop-color:#E4E4E4"/>
		<stop  offset="0.5373" style="stop-color:#F3F3F3"/>
		<stop  offset="0.7233" style="stop-color:#FCFCFC"/>
		<stop  offset="1" style="stop-color:#FFFFFF"/>
	</linearGradient>
	<polygon style="fill:url(#SVGID_00000057854330643949527930000007454384958500921000_);" points="1000,482.427 0,665.07 0,673.464 
		1000,490.822 	"/>
	<polygon style="fill:#FFFFFF;" points="1000,586.658 0,769.301 0,777.695 1000,595.053 	"/>
	
		<linearGradient id="SVGID_00000079461391030849014760000015916295214037029009_" gradientUnits="userSpaceOnUse" x1="1856.4097" y1="1646.6294" x2="1261.6539" y2="992.1574" gradientTransform="matrix(0.1797 0.9837 -1.2935 0.2362 1938.9298 -1175.5355)">
		<stop  offset="0" style="stop-color:#999999"/>
		<stop  offset="0.1007" style="stop-color:#B3B3B3"/>
		<stop  offset="0.2336" style="stop-color:#CFCFCF"/>
		<stop  offset="0.378" style="stop-color:#E4E4E4"/>
		<stop  offset="0.5373" style="stop-color:#F3F3F3"/>
		<stop  offset="0.7233" style="stop-color:#FCFCFC"/>
		<stop  offset="1" style="stop-color:#FFFFFF"/>
	</linearGradient>
	<polygon style="fill:url(#SVGID_00000079461391030849014760000015916295214037029009_);" points="1000,586.658 0,769.301 
		0,777.695 1000,595.053 	"/>
	<polygon style="fill:#FFFFFF;" points="1000,690.89 0,873.532 0,881.926 1000,699.284 	"/>
	
		<linearGradient id="SVGID_00000038385315228468824550000007463404797458032523_" gradientUnits="userSpaceOnUse" x1="1951.8583" y1="1653.0736" x2="1357.1027" y2="998.6016" gradientTransform="matrix(0.1797 0.9837 -1.2935 0.2362 1938.9298 -1175.5355)">
		<stop  offset="0" style="stop-color:#999999"/>
		<stop  offset="0.1007" style="stop-color:#B3B3B3"/>
		<stop  offset="0.2336" style="stop-color:#CFCFCF"/>
		<stop  offset="0.378" style="stop-color:#E4E4E4"/>
		<stop  offset="0.5373" style="stop-color:#F3F3F3"/>
		<stop  offset="0.7233" style="stop-color:#FCFCFC"/>
		<stop  offset="1" style="stop-color:#FFFFFF"/>
	</linearGradient>
	<polygon style="fill:url(#SVGID_00000038385315228468824550000007463404797458032523_);" points="1000,690.89 0,873.532 0,881.926 
		1000,699.284 	"/>
	<polygon style="fill:#FFFFFF;" points="1000,743.005 0,925.647 0,934.041 1000,751.399 	"/>
	
		<linearGradient id="SVGID_00000083054259153232661130000014470236143722897049_" gradientUnits="userSpaceOnUse" x1="1999.5822" y1="1656.2958" x2="1404.8265" y2="1001.8238" gradientTransform="matrix(0.1797 0.9837 -1.2935 0.2362 1938.9298 -1175.5355)">
		<stop  offset="0" style="stop-color:#999999"/>
		<stop  offset="0.1007" style="stop-color:#B3B3B3"/>
		<stop  offset="0.2336" style="stop-color:#CFCFCF"/>
		<stop  offset="0.378" style="stop-color:#E4E4E4"/>
		<stop  offset="0.5373" style="stop-color:#F3F3F3"/>
		<stop  offset="0.7233" style="stop-color:#FCFCFC"/>
		<stop  offset="1" style="stop-color:#FFFFFF"/>
	</linearGradient>
	<polygon style="fill:url(#SVGID_00000083054259153232661130000014470236143722897049_);" points="1000,743.005 0,925.647 
		0,934.041 1000,751.399 	"/>
	<polygon style="fill:#FFFFFF;" points="1000,795.119 0,977.762 0,986.156 1000,803.514 	"/>
	
		<linearGradient id="SVGID_00000086671713685802873350000000123585999120695482_" gradientUnits="userSpaceOnUse" x1="2047.3062" y1="1659.5179" x2="1452.5504" y2="1005.0459" gradientTransform="matrix(0.1797 0.9837 -1.2935 0.2362 1938.9298 -1175.5355)">
		<stop  offset="0" style="stop-color:#999999"/>
		<stop  offset="0.1007" style="stop-color:#B3B3B3"/>
		<stop  offset="0.2336" style="stop-color:#CFCFCF"/>
		<stop  offset="0.378" style="stop-color:#E4E4E4"/>
		<stop  offset="0.5373" style="stop-color:#F3F3F3"/>
		<stop  offset="0.7233" style="stop-color:#FCFCFC"/>
		<stop  offset="1" style="stop-color:#FFFFFF"/>
	</linearGradient>
	<polygon style="fill:url(#SVGID_00000086671713685802873350000000123585999120695482_);" points="1000,795.119 0,977.762 
		0,986.156 1000,803.514 	"/>
	<polygon style="fill:#FFFFFF;" points="1000,855.63 1000,847.236 163.587,1000 209.548,1000 	"/>
	
		<linearGradient id="SVGID_00000026858293738303852330000014827134804550002857_" gradientUnits="userSpaceOnUse" x1="2126.5027" y1="1634.14" x2="1531.746" y2="979.667" gradientTransform="matrix(0.1797 0.9837 -1.2935 0.2362 1938.9298 -1175.5355)">
		<stop  offset="0" style="stop-color:#999999"/>
		<stop  offset="0.1007" style="stop-color:#B3B3B3"/>
		<stop  offset="0.2336" style="stop-color:#CFCFCF"/>
		<stop  offset="0.378" style="stop-color:#E4E4E4"/>
		<stop  offset="0.5373" style="stop-color:#F3F3F3"/>
		<stop  offset="0.7233" style="stop-color:#FCFCFC"/>
		<stop  offset="1" style="stop-color:#FFFFFF"/>
	</linearGradient>
	<polygon style="fill:url(#SVGID_00000026858293738303852330000014827134804550002857_);" points="1000,855.63 1000,847.236 
		163.587,1000 209.548,1000 	"/>
	<polygon style="fill:#FFFFFF;" points="494.887,1000 1000,907.745 1000,899.351 448.926,1000 	"/>
	
		<linearGradient id="SVGID_00000177477433148953296630000009829665871493621174_" gradientUnits="userSpaceOnUse" x1="2229.1206" y1="1587.4756" x2="1634.3636" y2="933.0023" gradientTransform="matrix(0.1797 0.9837 -1.2935 0.2362 1938.9298 -1175.5355)">
		<stop  offset="0" style="stop-color:#999999"/>
		<stop  offset="0.1007" style="stop-color:#B3B3B3"/>
		<stop  offset="0.2336" style="stop-color:#CFCFCF"/>
		<stop  offset="0.378" style="stop-color:#E4E4E4"/>
		<stop  offset="0.5373" style="stop-color:#F3F3F3"/>
		<stop  offset="0.7233" style="stop-color:#FCFCFC"/>
		<stop  offset="1" style="stop-color:#FFFFFF"/>
	</linearGradient>
	<polygon style="fill:url(#SVGID_00000177477433148953296630000009829665871493621174_);" points="494.887,1000 1000,907.745 
		1000,899.351 448.926,1000 	"/>
	<polygon style="fill:#FFFFFF;" points="780.226,1000 1000,959.86 1000,951.466 734.266,1000 	"/>
	
		<linearGradient id="SVGID_00000006699182039168561800000011315783803173931676_" gradientUnits="userSpaceOnUse" x1="2331.74" y1="1540.8126" x2="1736.9841" y2="886.3405" gradientTransform="matrix(0.1797 0.9837 -1.2935 0.2362 1938.9298 -1175.5355)">
		<stop  offset="0" style="stop-color:#999999"/>
		<stop  offset="0.1007" style="stop-color:#B3B3B3"/>
		<stop  offset="0.2336" style="stop-color:#CFCFCF"/>
		<stop  offset="0.378" style="stop-color:#E4E4E4"/>
		<stop  offset="0.5373" style="stop-color:#F3F3F3"/>
		<stop  offset="0.7233" style="stop-color:#FCFCFC"/>
		<stop  offset="1" style="stop-color:#FFFFFF"/>
	</linearGradient>
	<polygon style="fill:url(#SVGID_00000006699182039168561800000011315783803173931676_);" points="780.226,1000 1000,959.86 
		1000,951.466 734.266,1000 	"/>
	<polygon style="fill:#FFFFFF;" points="217.288,0 0,39.686 0,48.08 263.249,0 	"/>
	
		<linearGradient id="SVGID_00000118382347896846110420000015624428326303813808_" gradientUnits="userSpaceOnUse" x1="1046.532" y1="1730.3259" x2="451.7765" y2="1075.8541" gradientTransform="matrix(0.1797 0.9837 -1.2935 0.2362 1938.9298 -1175.5355)">
		<stop  offset="0" style="stop-color:#999999"/>
		<stop  offset="0.1007" style="stop-color:#B3B3B3"/>
		<stop  offset="0.2336" style="stop-color:#CFCFCF"/>
		<stop  offset="0.378" style="stop-color:#E4E4E4"/>
		<stop  offset="0.5373" style="stop-color:#F3F3F3"/>
		<stop  offset="0.7233" style="stop-color:#FCFCFC"/>
		<stop  offset="1" style="stop-color:#FFFFFF"/>
	</linearGradient>
	<polygon style="fill:url(#SVGID_00000118382347896846110420000015624428326303813808_);" points="217.288,0 0,39.686 0,48.08 
		263.249,0 	"/>
	<polygon style="fill:#FFFFFF;" points="502.627,0 0,91.801 0,100.195 548.588,0 	"/>
	
		<linearGradient id="SVGID_00000031903389352658121690000014358660615270958007_" gradientUnits="userSpaceOnUse" x1="1149.1508" y1="1683.6621" x2="554.3957" y2="1029.1908" gradientTransform="matrix(0.1797 0.9837 -1.2935 0.2362 1938.9298 -1175.5355)">
		<stop  offset="0" style="stop-color:#999999"/>
		<stop  offset="0.1007" style="stop-color:#B3B3B3"/>
		<stop  offset="0.2336" style="stop-color:#CFCFCF"/>
		<stop  offset="0.378" style="stop-color:#E4E4E4"/>
		<stop  offset="0.5373" style="stop-color:#F3F3F3"/>
		<stop  offset="0.7233" style="stop-color:#FCFCFC"/>
		<stop  offset="1" style="stop-color:#FFFFFF"/>
	</linearGradient>
	<polygon style="fill:url(#SVGID_00000031903389352658121690000014358660615270958007_);" points="502.627,0 0,91.801 0,100.195 
		548.588,0 	"/>
	<polygon style="fill:#FFFFFF;" points="787.966,0 0,143.916 0,152.31 833.928,0 	"/>
	
		<linearGradient id="SVGID_00000108987545773137738690000010038843329215499681_" gradientUnits="userSpaceOnUse" x1="1251.7694" y1="1636.9983" x2="657.0118" y2="982.5242" gradientTransform="matrix(0.1797 0.9837 -1.2935 0.2362 1938.9298 -1175.5355)">
		<stop  offset="0" style="stop-color:#999999"/>
		<stop  offset="0.1007" style="stop-color:#B3B3B3"/>
		<stop  offset="0.2336" style="stop-color:#CFCFCF"/>
		<stop  offset="0.378" style="stop-color:#E4E4E4"/>
		<stop  offset="0.5373" style="stop-color:#F3F3F3"/>
		<stop  offset="0.7233" style="stop-color:#FCFCFC"/>
		<stop  offset="1" style="stop-color:#FFFFFF"/>
	</linearGradient>
	<polygon style="fill:url(#SVGID_00000108987545773137738690000010038843329215499681_);" points="787.966,0 0,143.916 0,152.31 
		833.928,0 	"/>
	<polygon style="fill:#FFFFFF;" points="1000,13.39 0,196.032 0,204.426 1000,21.784 	"/>
	
		<linearGradient id="SVGID_00000026158511661351390620000001390570046973820313_" gradientUnits="userSpaceOnUse" x1="1331.4441" y1="1611.1862" x2="736.6885" y2="956.7142" gradientTransform="matrix(0.1797 0.9837 -1.2935 0.2362 1938.9298 -1175.5355)">
		<stop  offset="0" style="stop-color:#999999"/>
		<stop  offset="0.1007" style="stop-color:#B3B3B3"/>
		<stop  offset="0.2336" style="stop-color:#CFCFCF"/>
		<stop  offset="0.378" style="stop-color:#E4E4E4"/>
		<stop  offset="0.5373" style="stop-color:#F3F3F3"/>
		<stop  offset="0.7233" style="stop-color:#FCFCFC"/>
		<stop  offset="1" style="stop-color:#FFFFFF"/>
	</linearGradient>
	<polygon style="fill:url(#SVGID_00000026158511661351390620000001390570046973820313_);" points="1000,13.39 0,196.032 0,204.426 
		1000,21.784 	"/>
	<polygon style="fill:#FFFFFF;" points="1000,65.505 0,248.147 0,256.542 1000,73.899 	"/>
	
		<linearGradient id="SVGID_00000052078421132176199920000018401168623300770692_" gradientUnits="userSpaceOnUse" x1="1379.1676" y1="1614.4078" x2="784.412" y2="959.936" gradientTransform="matrix(0.1797 0.9837 -1.2935 0.2362 1938.9298 -1175.5355)">
		<stop  offset="0" style="stop-color:#999999"/>
		<stop  offset="0.1007" style="stop-color:#B3B3B3"/>
		<stop  offset="0.2336" style="stop-color:#CFCFCF"/>
		<stop  offset="0.378" style="stop-color:#E4E4E4"/>
		<stop  offset="0.5373" style="stop-color:#F3F3F3"/>
		<stop  offset="0.7233" style="stop-color:#FCFCFC"/>
		<stop  offset="1" style="stop-color:#FFFFFF"/>
	</linearGradient>
	<polygon style="fill:url(#SVGID_00000052078421132176199920000018401168623300770692_);" points="1000,65.505 0,248.147 0,256.542 
		1000,73.899 	"/>
	<polygon style="fill:#FFFFFF;" points="1000,117.62 0,300.262 0,308.657 1000,126.014 	"/>
	
		<linearGradient id="SVGID_00000085216599073808230770000014546086110302805147_" gradientUnits="userSpaceOnUse" x1="1426.8916" y1="1617.6301" x2="832.136" y2="963.1581" gradientTransform="matrix(0.1797 0.9837 -1.2935 0.2362 1938.9298 -1175.5355)">
		<stop  offset="0" style="stop-color:#999999"/>
		<stop  offset="0.1007" style="stop-color:#B3B3B3"/>
		<stop  offset="0.2336" style="stop-color:#CFCFCF"/>
		<stop  offset="0.378" style="stop-color:#E4E4E4"/>
		<stop  offset="0.5373" style="stop-color:#F3F3F3"/>
		<stop  offset="0.7233" style="stop-color:#FCFCFC"/>
		<stop  offset="1" style="stop-color:#FFFFFF"/>
	</linearGradient>
	<polygon style="fill:url(#SVGID_00000085216599073808230770000014546086110302805147_);" points="1000,117.62 0,300.262 0,308.657 
		1000,126.014 	"/>
	<polygon style="fill:#FFFFFF;" points="1000,221.851 0,404.493 0,412.888 1000,230.245 	"/>
	
		<linearGradient id="SVGID_00000052820328285676398140000006210676282874407051_" gradientUnits="userSpaceOnUse" x1="1522.3406" y1="1624.0746" x2="927.585" y2="969.6027" gradientTransform="matrix(0.1797 0.9837 -1.2935 0.2362 1938.9298 -1175.5355)">
		<stop  offset="0" style="stop-color:#999999"/>
		<stop  offset="0.1007" style="stop-color:#B3B3B3"/>
		<stop  offset="0.2336" style="stop-color:#CFCFCF"/>
		<stop  offset="0.378" style="stop-color:#E4E4E4"/>
		<stop  offset="0.5373" style="stop-color:#F3F3F3"/>
		<stop  offset="0.7233" style="stop-color:#FCFCFC"/>
		<stop  offset="1" style="stop-color:#FFFFFF"/>
	</linearGradient>
	<polygon style="fill:url(#SVGID_00000052820328285676398140000006210676282874407051_);" points="1000,221.851 0,404.493 
		0,412.888 1000,230.245 	"/>
	<polygon style="fill:#FFFFFF;" points="1000,326.082 0,508.724 0,517.119 1000,334.477 	"/>
	
		<linearGradient id="SVGID_00000001625353305185938220000015993127571779120271_" gradientUnits="userSpaceOnUse" x1="1617.7893" y1="1630.5188" x2="1023.0336" y2="976.0468" gradientTransform="matrix(0.1797 0.9837 -1.2935 0.2362 1938.9298 -1175.5355)">
		<stop  offset="0" style="stop-color:#999999"/>
		<stop  offset="0.1007" style="stop-color:#B3B3B3"/>
		<stop  offset="0.2336" style="stop-color:#CFCFCF"/>
		<stop  offset="0.378" style="stop-color:#E4E4E4"/>
		<stop  offset="0.5373" style="stop-color:#F3F3F3"/>
		<stop  offset="0.7233" style="stop-color:#FCFCFC"/>
		<stop  offset="1" style="stop-color:#FFFFFF"/>
	</linearGradient>
	<polygon style="fill:url(#SVGID_00000001625353305185938220000015993127571779120271_);" points="1000,326.082 0,508.724 
		0,517.119 1000,334.477 	"/>
	<polygon style="fill:#FFFFFF;" points="1000,430.312 0,612.954 0,621.349 1000,438.707 	"/>
	
		<linearGradient id="SVGID_00000168115265215767053540000000446861102749651077_" gradientUnits="userSpaceOnUse" x1="1713.2368" y1="1636.9628" x2="1118.481" y2="982.4907" gradientTransform="matrix(0.1797 0.9837 -1.2935 0.2362 1938.9298 -1175.5355)">
		<stop  offset="0" style="stop-color:#999999"/>
		<stop  offset="0.1007" style="stop-color:#B3B3B3"/>
		<stop  offset="0.2336" style="stop-color:#CFCFCF"/>
		<stop  offset="0.378" style="stop-color:#E4E4E4"/>
		<stop  offset="0.5373" style="stop-color:#F3F3F3"/>
		<stop  offset="0.7233" style="stop-color:#FCFCFC"/>
		<stop  offset="1" style="stop-color:#FFFFFF"/>
	</linearGradient>
	<polygon style="fill:url(#SVGID_00000168115265215767053540000000446861102749651077_);" points="1000,430.312 0,612.954 
		0,621.349 1000,438.707 	"/>
	<polygon style="fill:#FFFFFF;" points="1000,534.543 0,717.186 0,725.58 1000,542.938 	"/>
	
		<linearGradient id="SVGID_00000080178912281464072960000008166266428579280285_" gradientUnits="userSpaceOnUse" x1="1808.6857" y1="1643.4072" x2="1213.9301" y2="988.9352" gradientTransform="matrix(0.1797 0.9837 -1.2935 0.2362 1938.9298 -1175.5355)">
		<stop  offset="0" style="stop-color:#999999"/>
		<stop  offset="0.1007" style="stop-color:#B3B3B3"/>
		<stop  offset="0.2336" style="stop-color:#CFCFCF"/>
		<stop  offset="0.378" style="stop-color:#E4E4E4"/>
		<stop  offset="0.5373" style="stop-color:#F3F3F3"/>
		<stop  offset="0.7233" style="stop-color:#FCFCFC"/>
		<stop  offset="1" style="stop-color:#FFFFFF"/>
	</linearGradient>
	<polygon style="fill:url(#SVGID_00000080178912281464072960000008166266428579280285_);" points="1000,534.543 0,717.186 0,725.58 
		1000,542.938 	"/>
	<polygon style="fill:#FFFFFF;" points="1000,638.773 0,821.416 0,829.81 1000,647.168 	"/>
	
		<linearGradient id="SVGID_00000119108703537907750360000004023930603407210412_" gradientUnits="userSpaceOnUse" x1="1904.1335" y1="1649.8517" x2="1309.3779" y2="995.3796" gradientTransform="matrix(0.1797 0.9837 -1.2935 0.2362 1938.9298 -1175.5355)">
		<stop  offset="0" style="stop-color:#999999"/>
		<stop  offset="0.1007" style="stop-color:#B3B3B3"/>
		<stop  offset="0.2336" style="stop-color:#CFCFCF"/>
		<stop  offset="0.378" style="stop-color:#E4E4E4"/>
		<stop  offset="0.5373" style="stop-color:#F3F3F3"/>
		<stop  offset="0.7233" style="stop-color:#FCFCFC"/>
		<stop  offset="1" style="stop-color:#FFFFFF"/>
	</linearGradient>
	<polygon style="fill:url(#SVGID_00000119108703537907750360000004023930603407210412_);" points="1000,638.773 0,821.416 0,829.81 
		1000,647.168 	"/>
</g>
</svg>
